<svg width="24" height="24" viewBox="0 0 24 24" fill="none" xmlns="http://www.w3.org/2000/svg">
<path d="M18.3531 16.0002C17.9041 16.0019 17.4601 16.0943 17.0477 16.2719C16.6352 16.4494 16.263 16.7085 15.9531 17.0335L7.82647 12.9668C8.02638 12.3607 8.02638 11.7063 7.82647 11.1002L15.9665 6.96016C16.5495 7.57458 17.3402 7.95027 18.1848 8.0142C19.0294 8.07813 19.8676 7.82574 20.5365 7.30609C21.2054 6.78644 21.6572 6.03664 21.8041 5.20244C21.9509 4.36825 21.7824 3.50924 21.3312 2.79238C20.88 2.07553 20.1784 1.55204 19.3627 1.32367C18.5471 1.0953 17.6756 1.17836 16.9178 1.5567C16.16 1.93505 15.5699 2.58165 15.2622 3.37083C14.9546 4.16001 14.9513 5.03539 15.2531 5.82683L7.19314 9.92683C6.75783 9.39446 6.16853 9.00975 5.50601 8.82545C4.84349 8.64114 4.14018 8.66625 3.49249 8.89734C2.8448 9.12843 2.28444 9.55418 1.88821 10.1162C1.49199 10.6783 1.2793 11.3491 1.2793 12.0368C1.2793 12.7245 1.49199 13.3954 1.88821 13.9574C2.28444 14.5195 2.8448 14.9452 3.49249 15.1763C4.14018 15.4074 4.84349 15.4325 5.50601 15.2482C6.16853 15.0639 6.75783 14.6792 7.19314 14.1468L15.2331 18.1935C15.0973 18.5583 15.0273 18.9443 15.0265 19.3335C15.0265 19.9928 15.222 20.6372 15.5882 21.1854C15.9545 21.7336 16.4751 22.1608 17.0842 22.4131C17.6933 22.6654 18.3635 22.7314 19.0101 22.6028C19.6567 22.4742 20.2507 22.1567 20.7168 21.6905C21.183 21.2243 21.5005 20.6304 21.6291 19.9838C21.7577 19.3372 21.6917 18.667 21.4394 18.0579C21.1871 17.4488 20.7599 16.9282 20.2117 16.5619C19.6635 16.1957 19.0191 16.0002 18.3598 16.0002H18.3531Z" fill="white"/>
</svg>
