<svg width="41" height="43" viewBox="0 0 41 43" fill="none" xmlns="http://www.w3.org/2000/svg">
<path d="M9.65928 32.4218L5.44928 39.2078L5.89728 41.4273L8.01728 40.9533L12.2253 34.1716C11.3204 33.6717 10.4614 33.0859 9.65928 32.4218ZM27.4833 30.052C27.5113 29.9914 27.5293 29.9246 27.5553 29.8599C27.6613 29.6156 27.7553 29.3713 27.8313 29.1145C27.8433 29.0686 27.8493 29.0226 27.8633 28.9809C27.9413 28.7002 28.0067 28.416 28.0593 28.129V28.0851C28.4493 25.6443 27.7693 22.9216 26.2133 20.4619L28.4333 16.8831C30.9913 17.2235 33.2033 16.5511 34.2673 14.8327C36.1133 11.8615 33.8673 6.91513 29.2573 3.78107C24.6433 0.644932 19.4113 0.513389 17.5693 3.4804C16.5013 5.2009 16.8133 7.58745 18.1553 9.89676L15.9313 13.4755C13.1533 12.989 10.4993 13.4421 8.52528 14.8119C8.51328 14.816 8.49928 14.8202 8.49128 14.8286C8.26063 14.9923 8.03895 15.1693 7.82728 15.3589C7.79328 15.3881 7.75328 15.4153 7.72528 15.4445C7.53327 15.6216 7.35224 15.8113 7.18328 16.0124C7.14328 16.0626 7.08728 16.1064 7.04928 16.1586C6.83627 16.4104 6.64235 16.6792 6.46928 16.9625C3.70128 21.4161 6.06328 28.1561 11.7353 32.0147C17.4113 35.8733 24.2553 35.3847 27.0173 30.931C27.1913 30.6492 27.3513 30.3548 27.4833 30.052ZM25.8533 9.25992C24.0793 8.05516 23.2133 6.1551 23.9233 5.0088C24.6313 3.86668 26.6453 3.91888 28.4153 5.12364C30.1933 6.3284 31.0513 8.23264 30.3453 9.37476C29.6393 10.5169 27.6293 10.4647 25.8533 9.25992Z" fill="#009FAC"/>
</svg>
